<svg width="156" height="36" viewBox="0 0 156 36" fill="none" xmlns="http://www.w3.org/2000/svg">
<path d="M0.610954 8.69092C0.211484 8.69092 0 8.85541 0 9.30187V24.5287C0 24.9282 0.211484 25.1397 0.610954 25.1397H3.45424C3.90071 25.1397 4.08869 24.9752 4.08869 24.5287V20.1815C4.08869 19.8996 4.15919 19.8291 4.44116 19.8291H6.01555C6.32102 19.8291 6.46201 19.8996 6.6265 20.1581L9.2818 24.4347C9.63427 24.9752 9.91625 25.1397 10.5742 25.1397H13.7465C14.0989 25.1397 14.2869 25.0222 14.2869 24.8107C14.2869 24.6932 14.2399 24.5522 14.1224 24.3877L10.4802 18.8656C12.2661 17.9492 13.3235 16.3513 13.3235 14.0955C13.3235 10.5238 10.9972 8.69092 6.39152 8.69092H0.610954ZM9.09381 14.307C9.09381 15.6229 8.17738 16.2573 6.22703 16.2573H4.44116C4.15919 16.2573 4.08869 16.1634 4.08869 15.8814V12.8031C4.08869 12.5446 4.15919 12.4506 4.44116 12.4506H6.22703C8.17738 12.4506 9.09381 12.9911 9.09381 14.307Z" fill="#1674F8"/>
<path d="M16.7889 8.69092C16.3895 8.69092 16.178 8.85541 16.178 9.30187V24.5287C16.178 24.9282 16.3895 25.1397 16.7889 25.1397H26.6817C27.1047 25.1397 27.3161 24.9282 27.3161 24.5287V21.9909C27.3161 21.5444 27.1281 21.38 26.6817 21.38H20.6191C20.3372 21.38 20.2667 21.286 20.2667 21.0275V19.1006C20.2667 18.8422 20.3372 18.7482 20.6191 18.7482H25.8827C26.3292 18.7482 26.4937 18.5367 26.4937 18.1372V15.6229C26.4937 15.1764 26.3292 14.9884 25.8827 14.9884H20.6191C20.3372 14.9884 20.2667 14.9179 20.2667 14.636V12.8031C20.2667 12.5446 20.3372 12.4506 20.6191 12.4506H26.6582C27.1047 12.4506 27.2926 12.2861 27.2926 11.8397V9.30187C27.2926 8.9024 27.0812 8.69092 26.6582 8.69092H16.7889Z" fill="#1674F8"/>
<path d="M30.741 8.69092C30.3415 8.69092 30.13 8.85541 30.13 9.30187V24.5287C30.13 24.9282 30.3415 25.1397 30.741 25.1397H33.5843C34.0308 25.1397 34.2187 24.9752 34.2187 24.5287V19.6881C34.2187 19.4296 34.2892 19.3356 34.5712 19.3356H39.9523C40.3988 19.3356 40.5868 19.1711 40.5868 18.7247V16.2103C40.5868 15.7639 40.3988 15.5759 39.9523 15.5759H34.5712C34.2892 15.5759 34.2187 15.5054 34.2187 15.2234V12.8031C34.2187 12.5446 34.2892 12.4506 34.5712 12.4506H40.7512C41.1977 12.4506 41.3857 12.2861 41.3857 11.8397V9.30187C41.3857 8.9024 41.1742 8.69092 40.7512 8.69092H30.741Z" fill="#1674F8"/>
<path d="M44.4636 8.69092C44.0641 8.69092 43.8526 8.85541 43.8526 9.30187V24.5287C43.8526 24.9282 44.0641 25.1397 44.4636 25.1397H54.3563C54.7793 25.1397 54.9908 24.9282 54.9908 24.5287V21.9909C54.9908 21.5444 54.8028 21.38 54.3563 21.38H48.2938C48.0118 21.38 47.9413 21.286 47.9413 21.0275V19.1006C47.9413 18.8422 48.0118 18.7482 48.2938 18.7482H53.5574C54.0039 18.7482 54.1684 18.5367 54.1684 18.1372V15.6229C54.1684 15.1764 54.0039 14.9884 53.5574 14.9884H48.2938C48.0118 14.9884 47.9413 14.9179 47.9413 14.636V12.8031C47.9413 12.5446 48.0118 12.4506 48.2938 12.4506H54.3329C54.7793 12.4506 54.9673 12.2861 54.9673 11.8397V9.30187C54.9673 8.9024 54.7558 8.69092 54.3329 8.69092H44.4636Z" fill="#1674F8"/>
<path d="M58.4157 8.69092C58.0162 8.69092 57.8047 8.85541 57.8047 9.30187V24.5287C57.8047 24.9282 58.0162 25.1397 58.4157 25.1397H61.259C61.7054 25.1397 61.8934 24.9752 61.8934 24.5287V20.1815C61.8934 19.8996 61.9639 19.8291 62.2459 19.8291H63.8203C64.1257 19.8291 64.2667 19.8996 64.4312 20.1581L67.0865 24.4347C67.439 24.9752 67.721 25.1397 68.3789 25.1397H71.5512C71.9036 25.1397 72.0916 25.0222 72.0916 24.8107C72.0916 24.6932 72.0446 24.5522 71.9271 24.3877L68.2849 18.8656C70.0708 17.9492 71.1282 16.3513 71.1282 14.0955C71.1282 10.5238 68.8019 8.69092 64.1962 8.69092H58.4157ZM66.8985 14.307C66.8985 15.6229 65.9821 16.2573 64.0317 16.2573H62.2459C61.9639 16.2573 61.8934 16.1634 61.8934 15.8814V12.8031C61.8934 12.5446 61.9639 12.4506 62.2459 12.4506H64.0317C65.9821 12.4506 66.8985 12.9911 66.8985 14.307Z" fill="#1674F8"/>
<path d="M103.6 22.6958C103.6 22.5783 103.553 22.4373 103.459 22.2963L102.119 20.3695C101.955 20.1815 101.861 20.0875 101.696 20.0875C101.579 20.0875 101.414 20.158 101.226 20.299C100.028 21.2154 98.6887 21.6854 97.2553 21.6854C94.553 21.6854 92.5791 19.688 92.5791 16.9387C92.5791 14.0955 94.553 12.1451 97.2553 12.1451C98.5947 12.1451 99.9106 12.5916 101.179 13.508C101.344 13.6255 101.508 13.696 101.649 13.696C101.814 13.696 101.955 13.602 102.096 13.3905L103.459 11.4637C103.576 11.2992 103.623 11.1582 103.623 11.0407C103.623 10.8997 103.529 10.7587 103.341 10.5942C101.673 9.20783 99.6051 8.38539 97.2788 8.38539C92.1796 8.3149 88.2789 12.0981 88.3494 17.0092C88.2554 21.7794 92.1796 25.5156 97.0908 25.4451C99.4171 25.4451 101.555 24.6462 103.247 23.2363C103.482 23.0248 103.6 22.8368 103.6 22.6958Z" fill="#53D4FC"/>
<path d="M113.499 8.38539C108.518 8.3149 104.64 12.0511 104.711 16.9622C104.617 21.8264 108.494 25.5156 113.452 25.4451C118.504 25.5156 122.382 21.8264 122.311 16.9152C122.382 12.0041 118.551 8.3149 113.499 8.38539ZM118.081 16.9387C118.081 19.735 116.061 21.6854 113.476 21.6854C110.868 21.6854 108.941 19.782 108.941 16.9387C108.941 14.0955 110.891 12.1451 113.499 12.1451C116.108 12.1451 118.081 14.072 118.081 16.9387Z" fill="#53D4FC"/>
<path d="M125.442 8.69087C125.043 8.69087 124.831 8.85536 124.831 9.30182V18.0902C124.831 23.0483 127.768 25.4451 132.116 25.4451C136.627 25.4451 139.706 22.9073 139.706 18.0432V9.30182C139.706 8.85536 139.518 8.69087 139.071 8.69087H136.228C135.828 8.69087 135.617 8.85536 135.617 9.30182V17.7612C135.617 20.299 134.418 21.6854 132.257 21.6854C130.071 21.6854 128.92 20.299 128.92 17.7612V9.30182C128.92 8.85536 128.732 8.69087 128.285 8.69087H125.442Z" fill="#53D4FC"/>
<path d="M146.037 12.4506C146.295 12.4506 146.389 12.5446 146.389 12.8031V24.5287C146.389 24.9281 146.601 25.1396 147 25.1396H149.867C150.314 25.1396 150.478 24.9281 150.478 24.5287V12.8031C150.478 12.5446 150.572 12.4506 150.83 12.4506H154.543C154.99 12.4506 155.154 12.2391 155.154 11.8396V9.30182C155.154 8.85536 154.99 8.69087 154.543 8.69087H142.324C141.925 8.69087 141.713 8.85536 141.713 9.30182V11.8396C141.713 12.2391 141.925 12.4506 142.324 12.4506H146.037Z" fill="#53D4FC"/>
<path d="M86.0719 0L74.2212 15.4544L78.7124 20.2934L72.6993 36L85.6743 19.7435L80.9531 14.7935L86.0719 0Z" fill="#53D4FC"/>
</svg>
