<svg width="20" height="20" viewBox="0 0 20 20" fill="none" xmlns="http://www.w3.org/2000/svg">
<path fill-rule="evenodd" clip-rule="evenodd" d="M2.14286 0C1.57454 0 1.02949 0.225765 0.627628 0.627628C0.225765 1.02949 0 1.57454 0 2.14286L0 17.8571C0 18.4255 0.225765 18.9705 0.627628 19.3724C1.02949 19.7742 1.57454 20 2.14286 20H17.8571C18.4255 20 18.9705 19.7742 19.3724 19.3724C19.7742 18.9705 20 18.4255 20 17.8571V2.14286C20 1.57454 19.7742 1.02949 19.3724 0.627628C18.9705 0.225765 18.4255 0 17.8571 0L2.14286 0ZM4.28571 3.39286C4.04891 3.39286 3.82181 3.48693 3.65437 3.65437C3.48693 3.82181 3.39286 4.04891 3.39286 4.28571C3.39286 4.52251 3.48693 4.74962 3.65437 4.91706C3.82181 5.0845 4.04891 5.17857 4.28571 5.17857H7.14286C7.37966 5.17857 7.60676 5.0845 7.7742 4.91706C7.94165 4.74962 8.03571 4.52251 8.03571 4.28571C8.03571 4.04891 7.94165 3.82181 7.7742 3.65437C7.60676 3.48693 7.37966 3.39286 7.14286 3.39286H4.28571ZM3.39286 7.85714C3.39286 7.36429 3.79286 6.96429 4.28571 6.96429H10.7143C10.9511 6.96429 11.1782 7.05835 11.3456 7.2258C11.5131 7.39324 11.6071 7.62034 11.6071 7.85714C11.6071 8.09394 11.5131 8.32104 11.3456 8.48849C11.1782 8.65593 10.9511 8.75 10.7143 8.75H4.28571C4.04891 8.75 3.82181 8.65593 3.65437 8.48849C3.48693 8.32104 3.39286 8.09394 3.39286 7.85714ZM17.1929 8.31714C17.303 8.11503 17.3308 7.87818 17.2705 7.65603C17.2103 7.43388 17.0665 7.24361 16.8693 7.12491C16.6721 7.00621 16.4366 6.96826 16.2121 7.01899C15.9876 7.06971 15.7913 7.20519 15.6643 7.39714L11.8257 13.7914L7.58571 11.3671C7.38936 11.255 7.15776 11.2215 6.93768 11.2735C6.7176 11.3255 6.52544 11.459 6.4 11.6471L3.54286 15.9329C3.47776 16.0304 3.43251 16.1398 3.4097 16.2549C3.38689 16.3699 3.38696 16.4883 3.40991 16.6033C3.43286 16.7183 3.47824 16.8277 3.54345 16.9252C3.60867 17.0227 3.69245 17.1063 3.79 17.1714C3.88755 17.2365 3.99697 17.2818 4.11201 17.3046C4.22705 17.3274 4.34546 17.3273 4.46047 17.3044C4.57548 17.2814 4.68485 17.236 4.78232 17.1708C4.8798 17.1056 4.96347 17.0218 5.02857 16.9243L7.42286 13.3314L11.7 15.7743C12.1214 16.0171 12.6586 15.8757 12.9086 15.46L17.1943 8.31714H17.1929Z" fill="#1674F8"/>
</svg>
